<svg width="150" height="517" viewBox="0 0 150 517" fill="none" xmlns="http://www.w3.org/2000/svg">
<g opacity="0.25">
<path fill-rule="evenodd" clip-rule="evenodd" d="M397.729 88.5902H207.282L148.415 269.503L302.5 381.316L456.597 269.503L397.729 88.5902ZM143 271.266L203.938 84H401.068L462 271.266L302.5 387L143 271.266Z" fill="white"/>
<path fill-rule="evenodd" clip-rule="evenodd" d="M403.465 80.3478H201.535L139.121 272.107L302.497 390.627L465.879 272.107L403.465 80.3478ZM134 273.766L198.369 76H406.631L471 273.766L302.497 396L134 273.766Z" fill="white"/>
<path fill-rule="evenodd" clip-rule="evenodd" d="M409.215 72.0942H195.791L129.822 274.718L302.503 399.944L475.183 274.718L409.215 72.0942ZM126.206 277.148L125 276.273L192.809 68H412.203L480 276.273L302.503 405L126.206 277.148Z" fill="white"/>
<path fill-rule="evenodd" clip-rule="evenodd" d="M414.949 63.8462H190.045L120.523 277.31L302.497 409.25L484.471 277.31L414.949 63.8462ZM116 278.784L187.241 60H417.747L489 278.784L302.497 414L116 278.784Z" fill="white"/>
<path fill-rule="evenodd" clip-rule="evenodd" d="M420.7 56.5869H184.3L111.23 280.921L302.5 419.561L493.77 280.921L420.7 56.5869ZM107 282.286L181.68 53H423.32L498 282.286L302.5 424L107 282.286Z" fill="white"/>
<path fill-rule="evenodd" clip-rule="evenodd" d="M426.639 48.3334H179.361L102.932 283.523L302.997 428.872L503.068 283.523L426.639 48.3334ZM99 284.795L176.937 45H429.063L507 284.795L302.997 433L99 284.795Z" fill="white"/>
<path fill-rule="evenodd" clip-rule="evenodd" d="M432.382 40.0913H173.612L93.6278 286.121L302.997 438.183L512.372 286.121L432.382 40.0913ZM90.9041 287.963L90 287.301L171.378 37H434.628L516 287.301L302.997 442L90.9041 287.963Z" fill="white"/>
<path fill-rule="evenodd" clip-rule="evenodd" d="M438.124 31.8322H167.876L84.3463 288.723L303 447.494L521.66 288.723L438.124 31.8322ZM81 289.806L165.814 29H440.191L525 289.806L303 451L81 289.806Z" fill="white"/>
<path fill-rule="evenodd" clip-rule="evenodd" d="M530.958 291.331L443.873 23.5846H162.133L75.0417 291.331L303 456.811L530.958 291.331ZM72.7604 292.873L72 292.321L159.955 21.8922L160.249 21H445.751L534 292.321L303.76 459.453L303 460L72.7604 292.873Z" fill="white"/>
<path fill-rule="evenodd" clip-rule="evenodd" d="M449.618 15.3312H156.382L65.7484 293.926L303.003 466.116L540.252 293.926L449.618 15.3312ZM63 294.824L154.688 13H451.312L543 294.824L303.003 469L63 294.824Z" fill="white"/>
<path fill-rule="evenodd" clip-rule="evenodd" d="M455.357 7.07782H150.637L56.4434 296.539L303 475.433L549.551 296.539L455.357 7.07782ZM54.6109 297.777L54 297.339L148.885 5.71947L149.121 5H456.879L551.764 296.62L552 297.339L303 478L54.6109 297.777Z" fill="white"/>
<path fill-rule="evenodd" clip-rule="evenodd" d="M461.108 -0.175507H144.892L47.1499 300.135L302.997 485.738L558.85 300.135L461.108 -0.175507ZM45.536 301.223L45 300.831L143.353 -1.3669L143.566 -2H462.434L560.798 300.198L561 300.831L302.997 488L45.536 301.223Z" fill="white"/>
<path fill-rule="evenodd" clip-rule="evenodd" d="M568.132 302.741L466.85 -8.41158H139.156L37.8677 302.741L303 495.049L568.132 302.741ZM36.4727 303.679L36 303.339L137.83 -9.44751L138.009 -10H467.997L569.821 302.792L570 303.339L303.467 496.655L303 497L36.4727 303.679Z" fill="white"/>
<path fill-rule="evenodd" clip-rule="evenodd" d="M472.595 -16.6706H133.405L28.5624 305.343L302.997 504.366L577.432 305.343L472.595 -16.6706ZM27.3863 306.138L27 305.85L132.292 -17.5338L132.436 -18H473.558L578.856 305.395L579 305.85L302.997 506L27.3863 306.138Z" fill="white"/>
<path fill-rule="evenodd" clip-rule="evenodd" d="M586.732 307.947L478.341 -24.9238H127.665L19.2685 307.947L303 513.665L586.732 307.947ZM18.3229 308.586L18 308.35L126.76 -25.6317L126.881 -26H479.125L587.879 307.982L588 308.35L303.323 514.764L303 515L18.3229 308.586Z" fill="white"/>
<path fill-rule="evenodd" clip-rule="evenodd" d="M596.02 311.161L484.081 -33.1814H121.919L9.97458 311.161L302.994 523.974L596.02 311.161ZM9.24797 311.651L9 311.479L121.319 -34H484.681L597 311.479L303.236 524.821L302.994 525L9.24797 311.651Z" fill="white"/>
<path fill-rule="evenodd" clip-rule="evenodd" d="M115.753 -42L115.69 -41.7982L0 313.981L0.173024 314.108L303 534L303.167 533.873L606 313.981L605.942 313.785L490.253 -42H115.753ZM0.674794 313.762L116.18 -41.4293H489.826L605.325 313.762L303 533.279L0.674794 313.762Z" fill="white"/>
</g>
</svg>
