<svg id="Layer_1" data-name="Layer 1" xmlns="http://www.w3.org/2000/svg" viewBox="0 0 76.42 50.03"><defs><style>.cls-1{fill:#2be88b;}.cls-2{fill:#fff;}</style></defs><path class="cls-1" d="M4213.14,28a7.07,7.07,0,0,0,1.38,0,1.65,1.65,0,0,0,1.52-1.57c0-.25,0-.5,0-.75V18.37c0-.68,0-.64.63-.64h9a7.23,7.23,0,0,1,1.54.13,6.15,6.15,0,0,1,4.54,3.87,5.64,5.64,0,0,1,.41,1.86,2.36,2.36,0,0,1,0,.37h-2.4c0-.13,0-.25,0-.37a3.82,3.82,0,0,0-3.8-3.4c-2.34,0-4.68,0-7,0-.4,0-.42,0-.43.42v5.85c0,.25,0,.49,0,.74-.11.08-.11.22-.15.33a4.24,4.24,0,0,1-2,2.46,3.28,3.28,0,0,0-.31.2,6.74,6.74,0,0,1-1.33.3l-.89,0-.68,0a1.67,1.67,0,0,0-.31-.05q-.94,0-1.89,0a1.11,1.11,0,0,0-.25.05l-.53,0h-9.91l-.53,0a.85.85,0,0,0-.42-.06h-2a.93.93,0,0,1-.06-.52V11.19a1.29,1.29,0,0,1,.06-.62l.06,0,2.12,0c.17,0,.22.06.23.22s0,.32,0,.48v6.23c0,.21,0,.42,0,.64,0,1,0,2,0,3a1.36,1.36,0,0,0,.07.25,2.3,2.3,0,0,0-.07.74c0,1.81,0,3.62,0,5.43,0,.59,0,.57.59.57h9.79c.2,0,.39,0,.59,0a.7.7,0,0,0,.19.06c.65,0,1.3,0,1.95,0A1.55,1.55,0,0,0,4213.14,28Z" transform="translate(-4179.28 -10.53)"/><path class="cls-2" d="M4179.54,49.54c0-1.93,0-3.87,0-5.8a5.24,5.24,0,0,1,5.2-5.08h3.2a5.28,5.28,0,0,1,5.13,4.22,6,6,0,0,1,.1,1.11v11.4c0,.47,0,.48-.46.48h-1.49a.14.14,0,0,1-.16-.16c0-.14,0-.28,0-.42V50c0-.49,0-.49-.5-.49h-8.69c-.17,0-.22.06-.23.22s0,.28,0,.42v5.22c0,.15,0,.29,0,.43s0,.1-.1.1h-1.76c-.22,0-.25,0-.25-.24,0-.46,0-.93,0-1.39V49.54Zm6.82-2.19h4.43c.23,0,.27,0,.27-.28,0-1.07,0-2.14,0-3.2a3.15,3.15,0,0,0-3.12-3.08c-1.07,0-2.13,0-3.2,0a3,3,0,0,0-1.79.59,3.09,3.09,0,0,0-1.3,2.56c0,1,0,2.06,0,3.09,0,.28,0,.3.3.31h4.42Z" transform="translate(-4179.28 -10.53)"/><path class="cls-2" d="M4193.2,20a1,1,0,0,1-.6.08h-7.25q-.35,0-.69,0a3.29,3.29,0,0,0-2.84,2.65,4.43,4.43,0,0,0-.09.9V31a3.53,3.53,0,0,0,.74,2.28,3.14,3.14,0,0,0,2.43,1.26h7.83c.48,0,.47,0,.47.46s0,1.17,0,1.76c0,.19,0,.21-.21.22h-.32c-2.52,0-5,0-7.57,0a5.59,5.59,0,0,1-3.08-.87,5.71,5.71,0,0,1-2.66-4.17,6.77,6.77,0,0,1-.07-1c0-2.5,0-5,0-7.51a5.72,5.72,0,0,1,2.3-4.65,5.57,5.57,0,0,1,3.52-1.17c1.92,0,3.84,0,5.75,0h1.82l.37,0a.15.15,0,0,1,.14.13v0C4193.2,18.54,4193.2,19.26,4193.2,20Z" transform="translate(-4179.28 -10.53)"/><path class="cls-2" d="M4244.17,38.68l.32,0h7.13a3.94,3.94,0,0,1,2.68,1,3.9,3.9,0,0,1,1.39,2.95c0,.53,0,1.06,0,1.6a4,4,0,0,1-1.12,2.85l-.14.16a.07.07,0,0,0,0,.05c0,.15.19.24.29.36a4,4,0,0,1,1,2.54c0,.57,0,1.13,0,1.7a4.09,4.09,0,0,1-3.07,3.89,4.73,4.73,0,0,1-1.06.13h-7.19l-.21,0c0-.7,0-1.4,0-2.1h7.51a2,2,0,0,0,1.87-1.9c0-.57,0-1.13,0-1.7a2,2,0,0,0-1.92-1.84c-2.49,0-5,0-7.46,0,0-.72,0-1.43,0-2.15,2.45,0,4.9,0,7.35,0a2,2,0,0,0,2-2c0-.5,0-1,0-1.49a2,2,0,0,0-2-1.95c-2.46,0-4.93,0-7.4,0Z" transform="translate(-4179.28 -10.53)"/><path class="cls-2" d="M4229.8,24h2.4c0,.17,0,.35,0,.53v3.83a4.79,4.79,0,0,1-1.28,3.34l-.25.28a.64.64,0,0,0,0,.07c.1.11.21.22.31.34a4.74,4.74,0,0,1,1.24,3.2q0,.59,0,1.17c0,.18-.05.22-.22.22h-2c-.13,0-.2-.06-.2-.19,0-.32,0-.64,0-1a2.68,2.68,0,0,0-.1-.89,2.35,2.35,0,0,0-2.16-1.68h-.7c-1.84,0-3.69,0-5.53,0a5.53,5.53,0,0,1-2.48-.49l-.1,0a.13.13,0,0,0-.19.12v3.78c0,.1,0,.21,0,.3a.42.42,0,0,1-.32.06h-1.82c-.27,0-.29,0-.29-.31V30.47a2.45,2.45,0,0,0,0-.27,3.28,3.28,0,0,1,.31-.2,4.24,4.24,0,0,0,2-2.46c0-.11,0-.25.15-.33,0,.32,0,.64,0,1a4.48,4.48,0,0,0,.06.63,2.31,2.31,0,0,0,1.79,1.89,3,3,0,0,0,.79.07h6.32a2.38,2.38,0,0,0,2.13-1.51,2.25,2.25,0,0,0,.17-1V24.54C4229.77,24.34,4229.79,24.15,4229.8,24Z" transform="translate(-4179.28 -10.53)"/><path class="cls-1" d="M4224.42,50.3a11.08,11.08,0,0,1,0,1.91,4.16,4.16,0,0,1-4.12,3.7h-9.21c-.24,0-.29,0-.3-.28V39.28c0-.11,0-.21,0-.32,0-.27,0-.3.31-.3.6,0,1.21,0,1.81,0,0,.7,0,1.4,0,2.11,0,.14,0,.28,0,.42v4.53c0,.16,0,.32,0,.48q0,1.06,0,2.13c0,.76,0,1.53,0,2.29v2.82c0,.28,0,.31.3.32h7.2a2,2,0,0,0,1.25-.53,1.93,1.93,0,0,0,.65-1.46c0-.5,0-1,0-1.49Z" transform="translate(-4179.28 -10.53)"/><path class="cls-2" d="M4212.94,40.79c0-.71,0-1.41,0-2.11l.27,0h7.19a4.09,4.09,0,0,1,4.06,4c0,.53,0,1.07,0,1.6a4,4,0,0,1-1,2.73l-.14.15c-.14.16-.14.17,0,.31s.2.21.29.32a3.84,3.84,0,0,1,.88,2.56h-2.08c0-.16,0-.32-.08-.47a1.94,1.94,0,0,0-1.39-1.42,2.21,2.21,0,0,0-.68-.06h-7.25q0-1.07,0-2.13h7.5a2,2,0,0,0,1.87-1.9q0-.82,0-1.65a1.94,1.94,0,0,0-1.3-1.77,2.35,2.35,0,0,0-.83-.11Z" transform="translate(-4179.28 -10.53)"/><path class="cls-2" d="M4213.14,28a1.55,1.55,0,0,1-.31.06c-.65,0-1.3,0-1.95,0a.7.7,0,0,1-.19-.06V22.49c0-.1,0-.21,0-.31a2.12,2.12,0,0,0-2-2h-7.17a1.85,1.85,0,0,0-1.73,1.11,1.36,1.36,0,0,1-.07-.25c0-1,0-2,0-3a5.86,5.86,0,0,1,2.19-.36c2.2,0,4.4,0,6.61,0a4.57,4.57,0,0,1,4.61,4.58C4213.15,24.22,4213.14,26.12,4213.14,28Z" transform="translate(-4179.28 -10.53)"/><path class="cls-2" d="M4195.17,46.13c0-.14,0-.28,0-.42V39.38c0-.13,0-.25,0-.37a.16.16,0,0,1,.15-.18h8.14A5.18,5.18,0,0,1,4206.8,40a5.08,5.08,0,0,1,2,3.9c0,.76,0,1.52,0,2.28h-2.08c0-.17,0-.35,0-.53V44a3.14,3.14,0,0,0-2.28-2.95,4.22,4.22,0,0,0-1.06-.13h-5.8c-.21,0-.25,0-.26.24s0,.25,0,.37V45.6c0,.17,0,.35,0,.53Z" transform="translate(-4179.28 -10.53)"/><path class="cls-2" d="M4226.46,50.69c0-.14,0-.29,0-.43V44a5.33,5.33,0,0,1,.25-1.73,5.25,5.25,0,0,1,4.92-3.65h3.3a5.27,5.27,0,0,1,5.08,4.27c0,.18,0,.36.05.53l-2.1,0s0-.1,0-.16a3.16,3.16,0,0,0-3.12-2.54c-1,0-2.09,0-3.14,0a3,3,0,0,0-1.79.6,3.13,3.13,0,0,0-1.3,2.66v6.66c-.17,0-.34,0-.52,0Z" transform="translate(-4179.28 -10.53)"/><path class="cls-1" d="M4187.79,32.74h-2.92a3,3,0,0,1-.43,0c-.1,0-.15-.07-.16-.17s0-.29,0-.43c0-.53,0-1.06,0-1.59,0-.21,0-.25.25-.26h6.12a2.58,2.58,0,0,0,1.23-.27,2.29,2.29,0,0,0,1.26-1.8,5.82,5.82,0,0,0,0-.59V25c0-.14,0-.28,0-.42a.15.15,0,0,1,.14-.14h2c.31,0,.34,0,.34.33,0,1,0,2,0,2.93a7.73,7.73,0,0,1-.06,1,4.82,4.82,0,0,1-4.22,4.1c-.25,0-.5,0-.74,0Z" transform="translate(-4179.28 -10.53)"/><path class="cls-1" d="M4195.17,46.13h2.09c0,.51,0,1,0,1.54a1.92,1.92,0,0,0,.85,1.58,2.23,2.23,0,0,0,1.25.37h5.17a2.23,2.23,0,0,0,.84-.15,1.89,1.89,0,0,0,1.26-1.74c0-.53,0-1.07,0-1.6h2.08c0,.6,0,1.2,0,1.8a3.78,3.78,0,0,1-1,2.4l-.29.37a.93.93,0,0,0-.36.21,4,4,0,0,1-1.78.76,2.34,2.34,0,0,0-.24.09l-5.47,0a5.65,5.65,0,0,1-1-.06,4.46,4.46,0,0,1-1-.25c-.14-.06-.27-.09-.41-.14a3.08,3.08,0,0,0-.27-.24,4,4,0,0,1-1.66-2.21c-.05-.16-.12-.33-.18-.49A18.27,18.27,0,0,1,4195.17,46.13Z" transform="translate(-4179.28 -10.53)"/><path class="cls-1" d="M4226.46,50.69l1.56.05c.18,0,.35,0,.52,0a11,11,0,0,0,2.07-.09,13.33,13.33,0,0,0,3.24-.78,5.73,5.73,0,0,0,2.76-2.17,7.53,7.53,0,0,0,1.32-4.19l2.1,0a2.91,2.91,0,0,1,.05,1.06c-.06.18-.13.37-.17.55a9.44,9.44,0,0,1-1.74,4.09.72.72,0,0,0-.22.41.9.9,0,0,0-.37.3,9.52,9.52,0,0,1-5.33,2.77,16.49,16.49,0,0,1-2.81.25,3.89,3.89,0,0,0-.9,0c-.7,0-1.4,0-2.1,0a1.61,1.61,0,0,1,0-.62q0-.63,0-1.26A.6.6,0,0,1,4226.46,50.69Z" transform="translate(-4179.28 -10.53)"/><path class="cls-1" d="M4244.17,38.68c0,.7,0,1.41,0,2.11,0,1.19,0,2.38,0,3.56,0,.62,0,1.24,0,1.86s0,1.43,0,2.15c0,1,0,2,0,3,0,.79,0,1.59,0,2.39s0,1.4,0,2.1a17.39,17.39,0,0,1-1.91,0c-.16,0-.21-.07-.21-.24s0-.22,0-.32q0-8,0-16.06c0-.12,0-.25,0-.37s.05-.24.21-.24A17.4,17.4,0,0,1,4244.17,38.68Z" transform="translate(-4179.28 -10.53)"/><path class="cls-2" d="M4238,49.57a.72.72,0,0,1,.22-.41,9.44,9.44,0,0,0,1.74-4.09c0-.18.11-.37.17-.55v10.8c0,.65.05.58-.61.58h-1.33a.16.16,0,0,1-.17-.16c0-.14,0-.28,0-.42C4238,53.4,4238,51.49,4238,49.57Z" transform="translate(-4179.28 -10.53)"/><path class="cls-2" d="M4197.28,30.5h2a.85.85,0,0,1,.42.06v6c0,.47,0,.48-.46.48h-1.7c-.26,0-.28,0-.29-.32V31C4197.27,30.82,4197.28,30.66,4197.28,30.5Z" transform="translate(-4179.28 -10.53)"/><path class="cls-2" d="M4210.69,30.55a1.11,1.11,0,0,1,.25-.05q.95,0,1.89,0a1.67,1.67,0,0,1,.31.05v6.16c0,.18-.05.23-.22.23h-2c-.25,0-.26,0-.27-.28V30.55Z" transform="translate(-4179.28 -10.53)"/><path class="cls-2" d="M4195.17,48.35c.06.16.13.33.18.49a4,4,0,0,0,1.66,2.21,3.08,3.08,0,0,1,.27.24v4.09c0,.51.05.49-.49.49h-1.44c-.12,0-.2,0-.2-.19v-7C4195.15,48.56,4195.16,48.45,4195.17,48.35Z" transform="translate(-4179.28 -10.53)"/><path class="cls-2" d="M4205.14,51.76a2.34,2.34,0,0,1,.24-.09,4,4,0,0,0,1.78-.76.93.93,0,0,1,.36-.21,4.13,4.13,0,0,1,1.2,2.15,3.08,3.08,0,0,1,.08.68c0,.69,0,1.39,0,2.08,0,.23,0,.25-.23.25h-1.65c-.2,0-.24,0-.24-.25V53.85a2.22,2.22,0,0,0-.09-.73,1.94,1.94,0,0,0-1-1.18C4205.44,51.87,4205.29,51.82,4205.14,51.76Z" transform="translate(-4179.28 -10.53)"/><path class="cls-2" d="M4226.44,52.92c.7,0,1.4,0,2.1,0V55.6c0,.23,0,.26-.24.26h-1.65c-.17,0-.22,0-.22-.22C4226.43,54.73,4226.44,53.83,4226.44,52.92Z" transform="translate(-4179.28 -10.53)"/><path class="cls-1" d="M4219,59.14a.83.83,0,0,1-.07.13l-1.21,1.2a.16.16,0,0,1-.27,0c-.41-.41-.83-.82-1.24-1.24a.15.15,0,0,1,0-.23c.41-.42.82-.83,1.24-1.24a.14.14,0,0,1,.23,0L4219,59A.35.35,0,0,1,4219,59.14Z" transform="translate(-4179.28 -10.53)"/><path class="cls-1" d="M4202,60.56l-.13-.09-1.17-1.17c-.13-.14-.13-.2,0-.36l1.15-1.16a.18.18,0,0,1,.28,0l1.23,1.24a.15.15,0,0,1,0,.23l-1.24,1.24S4202,60.53,4202,60.56Z" transform="translate(-4179.28 -10.53)"/></svg>