<svg id="Layer_1" data-name="Layer 1" xmlns="http://www.w3.org/2000/svg" viewBox="0 0 122.27 80.04"><defs><style>.cls-1{fill:#2be88b;}.cls-2{fill:#231f20;}</style></defs><path class="cls-1" d="M4011,28a11.66,11.66,0,0,0,2.21,0,2.64,2.64,0,0,0,2.44-2.52c0-.39,0-.79,0-1.19V12.54c0-1.09,0-1,1-1h14.48a10.72,10.72,0,0,1,2.46.21,9.84,9.84,0,0,1,7.27,6.18,9.47,9.47,0,0,1,.65,3c0,.19,0,.39,0,.59h-3.84c0-.19,0-.39-.07-.59a6.08,6.08,0,0,0-6.07-5.42c-3.74,0-7.49,0-11.23,0-.64,0-.67,0-.69.67,0,.11,0,.22,0,.34q0,4.5,0,9c0,.39,0,.79,0,1.18-.18.14-.17.35-.23.53a6.81,6.81,0,0,1-3.19,3.93c-.17.1-.33.22-.49.32a9.25,9.25,0,0,1-2.13.48l-1.43.05L4011,32a2.81,2.81,0,0,0-.49-.09h-3a1.92,1.92,0,0,0-.4.09c-.28,0-.57,0-.85,0h-15.85l-.85,0a1.36,1.36,0,0,0-.66-.09h-3.23a1.39,1.39,0,0,1-.1-.83c0-1.82,0-3.63,0-5.45q0-12.3,0-24.61a2.12,2.12,0,0,1,.09-1l.09,0c1.13,0,2.26,0,3.4,0,.26,0,.35.1.37.36s0,.51,0,.76c0,3.33,0,6.65,0,10,0,.34,0,.68,0,1l0,4.73a1.56,1.56,0,0,0,.11.41,4.68,4.68,0,0,0-.12,1.18c0,2.9,0,5.79,0,8.69,0,.95,0,.91,1,.91h15.66c.31,0,.63,0,.94,0a1.17,1.17,0,0,0,.32.09c1,0,2.07,0,3.11,0A2.65,2.65,0,0,0,4011,28Z" transform="translate(-3956.79)"/><path class="cls-2" d="M3957.2,62.42c0-3.09,0-6.19,0-9.29a8.41,8.41,0,0,1,8.32-8.12h5.12a8.42,8.42,0,0,1,8.2,6.75,8.87,8.87,0,0,1,.17,1.78V71.79c0,.75,0,.76-.73.75h-2.39a.24.24,0,0,1-.26-.26c0-.23,0-.46,0-.68V63.07c0-.78,0-.79-.8-.79h-13.9c-.27,0-.36.1-.38.35s0,.45,0,.68q0,4.18,0,8.35c0,.23,0,.46,0,.69a.19.19,0,0,1-.16.16l-.17,0h-2.65c-.34,0-.39-.06-.4-.4V62.42Zm10.92-3.51h7.08c.37,0,.44-.07.44-.45,0-1.71.05-3.42,0-5.12a5,5,0,0,0-5-4.92c-1.7,0-3.41,0-5.11,0a4.76,4.76,0,0,0-2.86,1,5,5,0,0,0-2.1,4.09c0,1.64,0,3.29,0,4.94,0,.45,0,.49.48.5h7.07Z" transform="translate(-3956.79)"/><path class="cls-2" d="M3979.05,15.12a1.53,1.53,0,0,1-1,.13h-11.59c-.37,0-.74,0-1.11.05a5.29,5.29,0,0,0-4.55,4.23,7,7,0,0,0-.14,1.44c0,3.92,0,7.85,0,11.77a5.64,5.64,0,0,0,1.19,3.65,5,5,0,0,0,3.87,2c.32,0,.63,0,.94,0,3.87,0,7.73,0,11.6,0,.77,0,.75,0,.75.75,0,.93,0,1.87,0,2.81,0,.3-.05.34-.34.36s-.34,0-.51,0c-4,0-8.07,0-12.11,0a8.93,8.93,0,0,1-4.93-1.39,9.14,9.14,0,0,1-4.26-6.67,10.88,10.88,0,0,1-.1-1.61c0-4,0-8,0-12a9.17,9.17,0,0,1,3.67-7.45,9,9,0,0,1,5.64-1.87h12.1c.2,0,.4,0,.6,0a.23.23,0,0,1,.22.21.22.22,0,0,1,0,.08Z" transform="translate(-3956.79)"/><path class="cls-2" d="M4060.61,45.05a4.38,4.38,0,0,1,.51,0h11.42a6.53,6.53,0,0,1,6.51,6.33c0,.85,0,1.71,0,2.56a6.45,6.45,0,0,1-1.79,4.56l-.22.26s0,.05,0,.09c.09.24.31.38.47.58a6.3,6.3,0,0,1,1.56,4c0,.91,0,1.82,0,2.73a6.51,6.51,0,0,1-4.92,6.21,6.79,6.79,0,0,1-1.68.22H4061l-.34,0,0-3.37h12a3.15,3.15,0,0,0,3-3c0-.91,0-1.82,0-2.73a3.14,3.14,0,0,0-3.08-2.93c-4,0-8,0-11.93,0,0-1.15,0-2.29,0-3.43,3.92,0,7.84,0,11.76,0a3.22,3.22,0,0,0,3.27-3.22c0-.79,0-1.59,0-2.38a3.19,3.19,0,0,0-3.17-3.12c-3.95,0-7.9,0-11.85,0Z" transform="translate(-3956.79)"/><path class="cls-2" d="M4037.62,21.48h3.84c0,.28,0,.56,0,.85,0,2,0,4.08,0,6.13a7.69,7.69,0,0,1-2.06,5.35c-.14.14-.26.29-.39.44a.23.23,0,0,0,0,.1l.5.55a7.62,7.62,0,0,1,2,5.13c0,.62,0,1.24,0,1.87,0,.28-.07.35-.35.35h-3.24a.29.29,0,0,1-.32-.31c0-.51,0-1,0-1.53a4.66,4.66,0,0,0-.17-1.44A3.79,3.79,0,0,0,4034,36.3h-1.11c-3,0-5.9,0-8.86,0a8.76,8.76,0,0,1-4-.78l-.15-.06a.21.21,0,0,0-.3.19c0,.74,0,1.48,0,2.21V41.7c0,.17,0,.33,0,.47a.66.66,0,0,1-.51.11h-2.9c-.45,0-.47,0-.47-.5s0-1.19,0-1.79V31.9c0-.14,0-.28,0-.42.16-.11.32-.23.49-.33a6.81,6.81,0,0,0,3.19-3.93c.06-.18.05-.39.23-.53,0,.51,0,1,0,1.53a6.78,6.78,0,0,0,.1,1,3.66,3.66,0,0,0,2.86,3,4.53,4.53,0,0,0,1.27.12h9.61c.17,0,.34,0,.51,0a3.8,3.8,0,0,0,3.41-2.42,4.08,4.08,0,0,0,.27-1.58c0-2,0-4,0-5.95C4037.58,22.1,4037.61,21.79,4037.62,21.48Z" transform="translate(-3956.79)"/><path class="cls-1" d="M4029,63.63a16.57,16.57,0,0,1,0,3.07,6.5,6.5,0,0,1-5.23,5.77,6.72,6.72,0,0,1-1.35.14h-14.75c-.38,0-.45-.08-.47-.44,0-.14,0-.28,0-.43V45.49c0-.44.05-.48.51-.48,1,0,1.93-.07,2.89,0,0,1.13,0,2.25,0,3.37,0,.23,0,.46,0,.68v7.25c0,.25,0,.51,0,.76a32.51,32.51,0,0,0,0,3.42c0,1.22,0,2.44,0,3.66,0,1.5,0,3,0,4.52,0,.44.06.49.48.5h11.51a3.24,3.24,0,0,0,2-.84,3.14,3.14,0,0,0,1-2.35c0-.79,0-1.58,0-2.38Z" transform="translate(-3956.79)"/><path class="cls-2" d="M4010.65,48.41c0-1.12,0-2.24,0-3.37l.43,0c3.83,0,7.67,0,11.5,0a6.53,6.53,0,0,1,6.5,6.35c0,.85,0,1.7,0,2.55a6.51,6.51,0,0,1-1.65,4.37l-.23.25c-.21.25-.22.27,0,.49s.31.33.45.51a6.14,6.14,0,0,1,1.41,4.09h-3.32c-.05-.25-.07-.51-.14-.75a3.14,3.14,0,0,0-2.21-2.27,3.7,3.7,0,0,0-1.1-.1h-11.59a32.51,32.51,0,0,1,0-3.42h12a3.14,3.14,0,0,0,3-3q0-1.32,0-2.64a3.14,3.14,0,0,0-2.08-2.84,3.81,3.81,0,0,0-1.34-.18Z" transform="translate(-3956.79)"/><path class="cls-2" d="M4011,28a2.65,2.65,0,0,1-.49.09c-1,0-2.07,0-3.11,0A1.17,1.17,0,0,1,4007,28V19.15a4.34,4.34,0,0,0,0-.51,3.38,3.38,0,0,0-3.21-3.16h-11.48a2.94,2.94,0,0,0-2.77,1.78,1.56,1.56,0,0,1-.11-.41l0-4.73a9.31,9.31,0,0,1,3.51-.57c3.52,0,7,0,10.57,0a7.28,7.28,0,0,1,7.38,7.32C4011,21.91,4011,25,4011,28Z" transform="translate(-3956.79)"/><path class="cls-2" d="M3982.22,57c0-.22,0-.45,0-.68,0-3.37,0-6.75,0-10.12,0-.2,0-.4,0-.6a.25.25,0,0,1,.25-.28h13a8.25,8.25,0,0,1,5.37,1.81,8.14,8.14,0,0,1,3.18,6.23c0,1.22,0,2.44,0,3.66h-3.33c0-.28,0-.57,0-.85V53.56a5,5,0,0,0-3.66-4.71,6.29,6.29,0,0,0-1.68-.2H3986c-.35,0-.41.08-.42.39s0,.4,0,.6v6.47c0,.28,0,.57,0,.85Z" transform="translate(-3956.79)"/><path class="cls-2" d="M4032.28,64.25c0-.22-.05-.45-.05-.67v-10a9,9,0,0,1,.39-2.77,8.42,8.42,0,0,1,7.89-5.82q2.64,0,5.28,0a8.42,8.42,0,0,1,8.12,6.83,7.9,7.9,0,0,1,.07.85l-3.35,0a1.82,1.82,0,0,1-.07-.25,5,5,0,0,0-5-4.06c-1.68,0-3.36,0-5,0a4.69,4.69,0,0,0-2.86,1,5,5,0,0,0-2.09,4.26c0,3.55,0,7.1,0,10.66-.28,0-.55,0-.83,0Z" transform="translate(-3956.79)"/><path class="cls-1" d="M3970.41,35.54h-4.68c-.23,0-.46,0-.68,0a.27.27,0,0,1-.26-.28c0-.22,0-.45,0-.68,0-.85,0-1.7,0-2.55,0-.34.08-.4.41-.41h.68c3,0,6.07,0,9.11,0a4,4,0,0,0,2-.44,3.65,3.65,0,0,0,2-2.88,7.31,7.31,0,0,0,0-.94V23.08c0-.23,0-.46,0-.68a.24.24,0,0,1,.22-.22h.26c1,0,1.93,0,2.89,0,.5,0,.55,0,.55.53,0,1.56,0,3.12,0,4.68a11.13,11.13,0,0,1-.1,1.53,7.7,7.7,0,0,1-6.74,6.56c-.4,0-.8.07-1.19.07Z" transform="translate(-3956.79)"/><path class="cls-1" d="M3982.22,57h3.33c0,.82,0,1.65,0,2.47A3.06,3.06,0,0,0,3987,62a3.38,3.38,0,0,0,2,.59h8.27a3.36,3.36,0,0,0,1.33-.23,3,3,0,0,0,2-2.79c0-.85.05-1.7.06-2.55H4004c0,1,.05,1.91,0,2.87a6.21,6.21,0,0,1-1.57,3.85c-.16.19-.31.39-.47.59a1.34,1.34,0,0,0-.57.34,6.48,6.48,0,0,1-2.84,1.21,1.82,1.82,0,0,0-.39.14l-8.76,0a11,11,0,0,1-1.62-.09,7.54,7.54,0,0,1-1.55-.41c-.21-.09-.43-.14-.65-.21a4.09,4.09,0,0,0-.44-.39,6.53,6.53,0,0,1-2.65-3.54c-.09-.26-.2-.53-.29-.79A30,30,0,0,1,3982.22,57Z" transform="translate(-3956.79)"/><path class="cls-1" d="M4032.28,64.25l2.5.09c.28,0,.55,0,.83,0a17.45,17.45,0,0,0,3.31-.16,20.68,20.68,0,0,0,5.19-1.24,9.2,9.2,0,0,0,4.41-3.47,12.14,12.14,0,0,0,2.11-6.71l3.35,0a4.32,4.32,0,0,1,.08,1.68c-.09.3-.2.59-.26.89a15.26,15.26,0,0,1-2.79,6.54,1.2,1.2,0,0,0-.34.66,1.44,1.44,0,0,0-.59.47,15.13,15.13,0,0,1-8.54,4.43,27.07,27.07,0,0,1-4.49.41,6.3,6.3,0,0,0-1.44.07c-1.12-.07-2.24,0-3.36,0a2.76,2.76,0,0,1-.06-1c0-.68,0-1.35,0-2A1,1,0,0,1,4032.28,64.25Z" transform="translate(-3956.79)"/><path class="cls-1" d="M4060.61,45.05l0,3.37c0,1.9,0,3.8,0,5.7,0,1,0,2,0,3s0,2.28,0,3.43c0,1.61,0,3.23,0,4.84,0,1.28,0,2.55,0,3.83l0,3.37a28.23,28.23,0,0,1-3.05,0c-.26,0-.33-.11-.35-.38V46c0-.2,0-.4,0-.6s.08-.39.33-.39A26,26,0,0,1,4060.61,45.05Z" transform="translate(-3956.79)"/><path class="cls-2" d="M4050.67,62.47a1.2,1.2,0,0,1,.34-.66,15.26,15.26,0,0,0,2.79-6.54c.06-.3.17-.59.26-.89,0,1.85,0,3.69,0,5.54V71.66c0,1,.08.94-1,.94H4051a.25.25,0,0,1-.28-.25c0-.22,0-.45,0-.68C4050.68,68.6,4050.67,65.53,4050.67,62.47Z" transform="translate(-3956.79)"/><path class="cls-2" d="M3985.6,32h3.23a1.36,1.36,0,0,1,.66.09v9.61c0,.75,0,.76-.73.76H3986c-.43,0-.45,0-.47-.51V32.72C3985.57,32.46,3985.59,32.21,3985.6,32Z" transform="translate(-3956.79)"/><path class="cls-2" d="M4007,32a1.92,1.92,0,0,1,.4-.09h3a2.81,2.81,0,0,1,.49.09V41.3c0,.2,0,.4,0,.6s-.07.36-.35.36h-3.14c-.39,0-.42,0-.43-.46V32Z" transform="translate(-3956.79)"/><path class="cls-2" d="M3982.21,60.51c.09.26.2.53.29.79a6.53,6.53,0,0,0,2.65,3.54,4.09,4.09,0,0,1,.44.39q0,3.27,0,6.54c0,.8.08.77-.78.77h-2.3c-.19,0-.32-.09-.31-.31s0-.23,0-.34V61C3982.18,60.85,3982.2,60.68,3982.21,60.51Z" transform="translate(-3956.79)"/><path class="cls-2" d="M3998.17,66a1.82,1.82,0,0,1,.39-.14,6.48,6.48,0,0,0,2.84-1.21,1.34,1.34,0,0,1,.57-.34,6.42,6.42,0,0,1,1.93,3.43,5.79,5.79,0,0,1,.12,1.1c0,1.1,0,2.21,0,3.32,0,.37,0,.41-.37.41H4001c-.32,0-.38-.07-.38-.42v-2.8a3.61,3.61,0,0,0-.14-1.18,3.11,3.11,0,0,0-1.62-1.88A6.07,6.07,0,0,0,3998.17,66Z" transform="translate(-3956.79)"/><path class="cls-2" d="M4032.25,67.83c1.12,0,2.24,0,3.36,0,0,1.23,0,2.45,0,3.67,0,.2,0,.4,0,.6,0,.36,0,.41-.38.41q-1.32,0-2.64,0c-.28,0-.35-.07-.35-.35C4032.23,70.73,4032.24,69.28,4032.25,67.83Z" transform="translate(-3956.79)"/><path class="cls-1" d="M4020.39,77.79a.67.67,0,0,1-.12.19l-1.92,1.93a.27.27,0,0,1-.44,0l-2-2a.24.24,0,0,1,0-.37l2-2a.24.24,0,0,1,.37,0c.69.68,1.37,1.36,2.05,2C4020.37,77.64,4020.37,77.71,4020.39,77.79Z" transform="translate(-3956.79)"/><path class="cls-1" d="M3993.1,80a1.18,1.18,0,0,1-.22-.14c-.62-.62-1.25-1.23-1.86-1.86-.22-.23-.22-.33,0-.58l1.85-1.86a.28.28,0,0,1,.44,0l2,2a.25.25,0,0,1,0,.38l-2,2A.65.65,0,0,1,3993.1,80Z" transform="translate(-3956.79)"/></svg>