<svg width="24" height="22" viewBox="0 0 24 22" fill="none" xmlns="http://www.w3.org/2000/svg">
<g id="Group">
<path id="Vector" d="M23.2969 0.171875H0.703125C0.314812 0.171875 0 0.486687 0 0.875V17.9375C0 18.3258 0.314812 18.6406 0.703125 18.6406H7.18561L6.54202 20.4219H5.25005C4.86173 20.4219 4.54692 20.7367 4.54692 21.125C4.54692 21.5133 4.86173 21.8281 5.25005 21.8281H18.75C19.1383 21.8281 19.4531 21.5133 19.4531 21.125C19.4531 20.7367 19.1383 20.4219 18.75 20.4219H17.4579L16.8137 18.6406H23.2969C23.6852 18.6406 24 18.3258 24 17.9375V0.875C24 0.486687 23.6852 0.171875 23.2969 0.171875ZM22.5938 1.57812V14.4219H21.1875V9.6875C21.1875 9.29919 20.8727 8.98438 20.4844 8.98438H17.6719C17.2836 8.98438 16.9688 9.29919 16.9688 9.6875V14.4219H15.5625V6.875C15.5625 6.48669 15.2477 6.17188 14.8594 6.17188H12.0468C11.6585 6.17188 11.3437 6.48669 11.3437 6.875V14.4219H9.9375V12.0781C9.9375 11.6898 9.62269 11.375 9.23438 11.375H6.42188C6.03356 11.375 5.71875 11.6898 5.71875 12.0781V14.4219H1.40625V1.57812H22.5938ZM22.5938 17.2344H1.40625V15.8281H22.5938V17.2344ZM8.53125 14.4219H7.125V12.7812H8.53125V14.4219ZM14.1562 14.4219H12.75V7.57812H14.1562V14.4219ZM19.7812 14.4219H18.375V10.3906H19.7812V14.4219ZM15.9625 20.4219H8.03723L8.68083 18.6406H15.3183L15.9625 20.4219Z" fill="black"/>
<path id="Vector_2" d="M3.51496 4.39062H16.0774C16.4657 4.39062 16.7805 4.07581 16.7805 3.6875C16.7805 3.29919 16.4657 2.98438 16.0774 2.98438H3.51496C2.58693 3.01714 2.58018 4.35509 3.51496 4.39062Z" fill="black"/>
<path id="Vector_3" d="M3.51501 7.20312H9.23372C9.62203 7.20312 9.93684 6.88831 9.93684 6.5C9.93684 6.11169 9.62203 5.79688 9.23372 5.79688H3.51501C2.58492 5.83063 2.58215 7.1683 3.51501 7.20312Z" fill="black"/>
<path id="Vector_4" d="M3.51501 10.0156H9.22917C9.61748 10.0156 9.93229 9.70081 9.93229 9.3125C9.93229 8.92419 9.61748 8.60938 9.22917 8.60938H3.51501C2.58492 8.64313 2.58215 9.9808 3.51501 10.0156Z" fill="black"/>
<path id="Vector_5" d="M18.7963 4.48438H20.4838C20.8721 4.48438 21.1869 4.16956 21.1869 3.78125C21.1869 3.39294 20.8721 3.07812 20.4838 3.07812H18.7963C17.8651 3.11239 17.8645 4.44987 18.7963 4.48438Z" fill="black"/>
</g>
</svg>
