<svg width="51" height="50" viewBox="0 0 51 50" fill="none" xmlns="http://www.w3.org/2000/svg">
<g id="vaadin:thumbs-down" clip-path="url(#clip0_1418_2801)">
<path id="Vector" d="M49.3584 24.375C49.3584 24.375 50.9209 25.9375 50.6084 29.375C50.6084 34.0625 45.6084 34.375 45.6084 34.375L38.1084 34.375C37.4834 34.375 37.1709 35 37.1709 35.625C38.1084 37.8125 39.6709 42.1875 39.0459 45.3125C38.1084 49.6875 34.3584 50 33.1084 50C32.7959 50 32.4834 49.6875 32.4834 49.375L29.3584 40.625C29.3584 40.625 29.3584 40.3125 29.0459 40.3125L20.9209 31.5625C20.6084 31.25 20.2959 31.25 19.9834 31.25H19.3584L19.3584 9.375H19.9834C22.1709 9.375 29.9834 3.125 36.8584 3.125C43.7334 3.125 45.2959 4.0625 46.5459 6.25C47.7959 8.4375 46.8584 10.3125 46.8584 10.3125C46.8584 10.3125 48.4209 11.25 48.7334 13.4375C49.0459 15.625 48.4209 16.875 48.4209 16.875C48.4209 16.875 49.9834 18.125 49.9834 20.625C50.2959 23.4375 49.3584 24.375 49.3584 24.375ZM0.608398 34.375H16.2334L16.2334 9.375L0.608398 9.375L0.608398 34.375ZM8.4209 23.4375C10.2959 23.4375 11.5459 24.6875 11.5459 26.5625C11.5459 28.4375 10.2959 29.6875 8.4209 29.6875C6.5459 29.6875 5.2959 28.4375 5.2959 26.5625C5.2959 24.6875 6.5459 23.4375 8.4209 23.4375Z" fill="#B01120"/>
</g>
<defs>
<clipPath id="clip0_1418_2801">
<rect width="50" height="50" fill="white" transform="translate(0.608398)"/>
</clipPath>
</defs>
</svg>
