<svg width="21" height="20" viewBox="0 0 21 20" fill="none" xmlns="http://www.w3.org/2000/svg">
<g id="solar:eye-closed-broken">
<path id="Vector" d="M2.74185 5.58752C2.67665 5.43502 2.55354 5.31467 2.39961 5.25294C2.24567 5.19121 2.07352 5.19316 1.92102 5.25835C1.76852 5.32355 1.64816 5.44666 1.58643 5.6006C1.5247 5.75453 1.52665 5.92669 1.59185 6.07919L2.74185 5.58752ZM8.03435 11.4484C8.081 11.3796 8.11346 11.3022 8.12985 11.2208C8.14624 11.1393 8.14623 11.0554 8.12981 10.974C8.1134 10.8925 8.0809 10.8152 8.03424 10.7464C7.98757 10.6777 7.92767 10.6189 7.85803 10.5736C7.7884 10.5283 7.71042 10.4973 7.62867 10.4825C7.54692 10.4677 7.46303 10.4693 7.38192 10.4873C7.3008 10.5053 7.22408 10.5392 7.15625 10.5872C7.08841 10.6352 7.03082 10.6962 6.98685 10.7667L8.03435 11.4484ZM5.80935 12.5759C5.76459 12.6447 5.73383 12.7217 5.71882 12.8024C5.70381 12.8831 5.70485 12.966 5.72187 13.0463C5.75625 13.2085 5.85367 13.3505 5.99268 13.4409C6.1317 13.5312 6.30093 13.5627 6.46315 13.5283C6.54348 13.5113 6.61966 13.4786 6.68735 13.4322C6.75505 13.3857 6.81293 13.3264 6.85768 13.2575L5.80935 12.5759ZM19.4085 6.07919C19.4667 5.92822 19.4641 5.76056 19.4012 5.61148C19.3383 5.46241 19.2201 5.34352 19.0713 5.27984C18.9226 5.21616 18.755 5.21263 18.6037 5.27002C18.4524 5.3274 18.3293 5.44121 18.2602 5.58752L19.4085 6.07919ZM17.1418 10.9667C17.1991 11.0281 17.2681 11.0773 17.3447 11.1115C17.4214 11.1457 17.5042 11.164 17.5881 11.1655C17.672 11.167 17.7554 11.1516 17.8332 11.1201C17.911 11.0887 17.9817 11.0419 18.041 10.9826C18.1004 10.9232 18.1472 10.8525 18.1786 10.7747C18.2101 10.6969 18.2255 10.6135 18.224 10.5296C18.2225 10.4457 18.2042 10.3629 18.17 10.2862C18.1358 10.2096 18.0866 10.1406 18.0252 10.0834L17.1418 10.9667ZM9.87518 13.75C9.87518 13.9158 9.94103 14.0748 10.0582 14.192C10.1755 14.3092 10.3344 14.375 10.5002 14.375C10.6659 14.375 10.8249 14.3092 10.9421 14.192C11.0593 14.0748 11.1252 13.9158 11.1252 13.75H9.87518ZM14.1427 13.2575C14.2331 13.3965 14.375 13.494 14.5372 13.5283C14.6994 13.5627 14.8687 13.5312 15.0077 13.4409C15.1467 13.3505 15.2441 13.2085 15.2785 13.0463C15.3129 12.8841 15.2814 12.7149 15.191 12.5759L14.1427 13.2575ZM5.10935 9.71586C5.21964 9.59727 5.2796 9.44051 5.27659 9.27859C5.27358 9.11668 5.20784 8.96225 5.09322 8.84785C4.9786 8.73344 4.82405 8.66799 4.66213 8.66529C4.50021 8.66259 4.34356 8.72284 4.22518 8.83336L5.10935 9.71586ZM2.97518 10.0825C2.86478 10.201 2.80468 10.3577 2.80754 10.5196C2.8104 10.6815 2.87599 10.836 2.9905 10.9505C3.10501 11.0651 3.2595 11.1306 3.42142 11.1335C3.58333 11.1364 3.74004 11.0763 3.85852 10.9659L2.97518 10.0825ZM10.5002 11.0417C7.81352 11.0417 5.88435 9.70419 4.60435 8.32502C4.06662 7.74288 3.59125 7.10608 3.18602 6.42502C3.03321 6.16884 2.89223 5.90579 2.76352 5.63669C2.75731 5.62312 2.7512 5.60951 2.74518 5.59586L2.74185 5.58752L2.74102 5.58669L2.16685 5.83335C1.97478 5.91463 1.78311 5.99602 1.59185 6.07919L1.59268 6.08002L1.59352 6.08252L1.59602 6.08752C1.60682 6.1121 1.61793 6.13655 1.62935 6.16085C1.77635 6.46931 1.93763 6.77075 2.11268 7.06419C2.45435 7.63919 2.97435 8.40585 3.68768 9.17502C5.11685 10.7125 7.35352 12.2917 10.5002 12.2917V11.0417ZM13.261 10.5259C12.4527 10.845 11.5352 11.0417 10.5002 11.0417V12.2917C11.6985 12.2917 12.771 12.0617 13.7185 11.6892L13.261 10.5259ZM6.98685 10.7667L5.80935 12.5759L6.85768 13.2567L8.03435 11.4484L6.98685 10.7667ZM18.8335 5.83335L18.2585 5.58669H18.2593V5.58835L18.2535 5.59919C18.2135 5.68703 18.1715 5.774 18.1277 5.86002C17.5581 6.96366 16.8071 7.9637 15.906 8.81835L16.761 9.73002C17.834 8.71223 18.7153 7.50975 19.3627 6.18002L19.3952 6.10919L19.4035 6.08919L19.4068 6.08336V6.08085L19.4077 6.08002L18.8335 5.83335ZM15.906 8.81835C15.1894 9.49002 14.3119 10.1117 13.261 10.5259L13.7185 11.6892C14.946 11.2059 15.956 10.4859 16.761 9.73002L15.906 8.81835ZM15.8918 9.71586L17.1418 10.9667L18.0252 10.0825L16.7752 8.83252L15.8918 9.71586ZM9.87518 11.6667V13.75H11.1252V11.6667H9.87518ZM12.966 11.4484L14.1427 13.2575L15.191 12.5759L14.0135 10.7667L12.966 11.4484ZM4.22435 8.83169L2.97435 10.0817L3.85852 10.9659L5.10852 9.71669L4.22435 8.83169Z" fill="white"/>
</g>
</svg>
