<svg width="20" height="20" viewBox="0 0 20 20" fill="none" xmlns="http://www.w3.org/2000/svg">
<g id="solar:eye-broken">
<g id="Group">
<path id="Vector" d="M7.49935 3.71637C8.30784 3.46007 9.15121 3.33076 9.99935 3.33304C13.4843 3.33304 15.856 5.41637 17.2702 7.25304C17.9785 8.1747 18.3327 8.63387 18.3327 9.9997C18.3327 11.3664 17.9785 11.8255 17.2702 12.7464C15.856 14.583 13.4843 16.6664 9.99935 16.6664C6.51435 16.6664 4.14268 14.583 2.72852 12.7464C2.02018 11.8264 1.66602 11.3655 1.66602 9.9997C1.66602 8.63304 2.02018 8.17387 2.72852 7.25304C3.16048 6.68863 3.64152 6.16352 4.16602 5.68387" stroke="white" stroke-width="1.5625" stroke-linecap="round"/>
<path id="Vector_2" d="M12.5 10C12.5 10.663 12.2366 11.2989 11.7678 11.7678C11.2989 12.2366 10.663 12.5 10 12.5C9.33696 12.5 8.70107 12.2366 8.23223 11.7678C7.76339 11.2989 7.5 10.663 7.5 10C7.5 9.33696 7.76339 8.70107 8.23223 8.23223C8.70107 7.76339 9.33696 7.5 10 7.5C10.663 7.5 11.2989 7.76339 11.7678 8.23223C12.2366 8.70107 12.5 9.33696 12.5 10Z" stroke="white" stroke-width="1.5625"/>
</g>
</g>
</svg>
