<svg width="30" height="31" viewBox="0 0 30 31" fill="none" xmlns="http://www.w3.org/2000/svg">
<g id="ant-design:facebook-filled">
<path id="Vector" d="M25.7812 3.78125H4.21875C3.7002 3.78125 3.28125 4.2002 3.28125 4.71875V26.2812C3.28125 26.7998 3.7002 27.2188 4.21875 27.2188H25.7812C26.2998 27.2188 26.7188 26.7998 26.7188 26.2812V4.71875C26.7188 4.2002 26.2998 3.78125 25.7812 3.78125ZM23.0742 10.6221H21.2021C19.7344 10.6221 19.4502 11.3193 19.4502 12.3447V14.6035H22.9541L22.4971 18.1396H19.4502V27.2188H15.7969V18.1426H12.7412V14.6035H15.7969V11.9961C15.7969 8.96973 17.6455 7.32031 20.3467 7.32031C21.6416 7.32031 22.752 7.41699 23.0771 7.46094V10.6221H23.0742Z" fill="black"/>
</g>
</svg>
