<svg width="25" height="26" viewBox="0 0 25 26" fill="none" xmlns="http://www.w3.org/2000/svg">
<g id="fi_7712828" clip-path="url(#clip0_2127_2742)">
<g id="Layer_x0020_1">
<g id="_249437136">
<path id="_249431544" fill-rule="evenodd" clip-rule="evenodd" d="M24.3029 21.6483H0.697131C0.311944 21.6483 0 21.3363 0 20.9512V5.0482C0 4.66302 0.311944 4.35107 0.697131 4.35107H24.3029C24.6881 4.35107 25 4.66302 25 5.0482V20.9512C25 21.3363 24.688 21.6483 24.3029 21.6483Z" fill="#FE5022"/>
<path id="_249439800" fill-rule="evenodd" clip-rule="evenodd" d="M8.5886 16.2007L6.12402 21.6481H24.303C24.688 21.6481 25.0001 21.3362 25.0001 20.9511V16.2007L8.5886 16.2007Z" fill="#4D4D4D"/>
<path id="_249429024" fill-rule="evenodd" clip-rule="evenodd" d="M6.12501 4.35107L8.58815 9.79853H24.9999V5.04821C24.9999 4.66302 24.6879 4.35108 24.3028 4.35108L6.12501 4.35107Z" fill="#378B4E"/>
<path id="_249437304" fill-rule="evenodd" clip-rule="evenodd" d="M8.73132 10.2028V15.7967C8.73132 15.8539 8.71933 15.9107 8.69574 15.9629L8.58818 16.2006H24.9996V9.79834H8.58789L8.69562 10.0366C8.71921 10.0889 8.73132 10.1455 8.73132 10.2028Z" fill="#F2F2F2"/>
</g>
<path id="Vector" fill-rule="evenodd" clip-rule="evenodd" d="M6.12389 20.1263H0.697131C0.311944 20.1263 0 19.8143 0 19.4292V20.9513C0 21.3364 0.311944 21.6483 0.697131 21.6483H6.12389L6.81248 20.1263H6.12389Z" fill="#E5481F"/>
<path id="Vector_2" fill-rule="evenodd" clip-rule="evenodd" d="M24.3029 20.1263H6.81262L6.12402 21.6483H24.303C24.688 21.6483 25.0001 21.3364 25.0001 20.9513V19.4292C25.0001 19.8143 24.688 20.1263 24.3029 20.1263Z" fill="#454545"/>
</g>
</g>
<defs>
<clipPath id="clip0_2127_2742">
<rect width="25" height="25" fill="white" transform="translate(0 0.5)"/>
</clipPath>
</defs>
</svg>
