<svg width="26" height="25" viewBox="0 0 26 25" fill="none" xmlns="http://www.w3.org/2000/svg">
<g id="flat-color-icons:google">
<path id="Vector" d="M23.2142 10.4601H22.3752V10.4168H13.0002V14.5835H18.8871C18.0283 17.009 15.7205 18.7502 13.0002 18.7502C9.5486 18.7502 6.75016 15.9517 6.75016 12.5002C6.75016 9.0486 9.5486 6.25016 13.0002 6.25016C14.5934 6.25016 16.0429 6.8512 17.1465 7.83298L20.0929 4.88662C18.2325 3.15277 15.7439 2.0835 13.0002 2.0835C7.24756 2.0835 2.5835 6.74756 2.5835 12.5002C2.5835 18.2528 7.24756 22.9168 13.0002 22.9168C18.7528 22.9168 23.4168 18.2528 23.4168 12.5002C23.4168 11.8017 23.345 11.12 23.2142 10.4601Z" fill="#FFC107"/>
<path id="Vector_2" d="M3.78418 7.65172L7.20658 10.1616C8.13262 7.86891 10.3753 6.25016 12.9998 6.25016C14.593 6.25016 16.0425 6.8512 17.1462 7.83297L20.0925 4.88662C18.2321 3.15277 15.7436 2.0835 12.9998 2.0835C8.99876 2.0835 5.52897 4.34235 3.78418 7.65172Z" fill="#FF3D00"/>
<path id="Vector_3" d="M13 22.9165C15.6906 22.9165 18.1354 21.8868 19.9839 20.2124L16.7599 17.4842C15.6789 18.3063 14.3581 18.7509 13 18.7499C10.2906 18.7499 7.9901 17.0223 7.12344 14.6113L3.72656 17.2285C5.45052 20.602 8.95156 22.9165 13 22.9165Z" fill="#4CAF50"/>
<path id="Vector_4" d="M23.2141 10.4597H22.375V10.4165H13V14.5832H18.887C18.4762 15.7376 17.7361 16.7463 16.7583 17.4847L16.7599 17.4837L19.9839 20.2118C19.7557 20.4191 23.4167 17.7082 23.4167 12.4998C23.4167 11.8014 23.3448 11.1196 23.2141 10.4597Z" fill="#1976D2"/>
</g>
</svg>
