<svg xmlns="http://www.w3.org/2000/svg" width="25" height="25" fill="none" viewBox="0 0 25 25">
  <path fill="#000" d="M12.5 7.492a5 5 0 0 0-5.007 5.007 5 5 0 0 0 5.007 5.008 5 5 0 0 0 5.008-5.008A5 5 0 0 0 12.5 7.492Zm0 8.262a3.261 3.261 0 0 1-3.254-3.255A3.261 3.261 0 0 1 12.5 9.245a3.261 3.261 0 0 1 3.255 3.254 3.261 3.261 0 0 1-3.255 3.255Zm5.213-9.634a1.168 1.168 0 1 0 0 2.339 1.166 1.166 0 0 0 1.08-1.617 1.168 1.168 0 0 0-1.08-.722Zm4.548 6.38c0-1.348.012-2.684-.063-4.03-.076-1.562-.433-2.948-1.575-4.09-1.145-1.146-2.53-1.5-4.092-1.576-1.348-.075-2.683-.063-4.028-.063-1.348 0-2.683-.012-4.029.063-1.562.076-2.949.433-4.091 1.575-1.145 1.145-1.5 2.53-1.575 4.092-.076 1.348-.064 2.683-.064 4.028 0 1.345-.012 2.683.064 4.029.076 1.562.432 2.949 1.575 4.091 1.145 1.145 2.529 1.5 4.091 1.575 1.348.076 2.684.064 4.029.064 1.347 0 2.683.012 4.028-.064 1.563-.076 2.95-.432 4.092-1.575 1.145-1.145 1.499-2.529 1.575-4.091.078-1.346.063-2.681.063-4.029Zm-2.148 5.756a3.102 3.102 0 0 1-.738 1.118 3.125 3.125 0 0 1-1.118.738c-1.284.51-4.333.395-5.757.395-1.423 0-4.475.115-5.759-.393a3.102 3.102 0 0 1-1.118-.737 3.123 3.123 0 0 1-.738-1.118c-.507-1.287-.393-4.336-.393-5.76 0-1.423-.114-4.475.393-5.759.179-.444.394-.776.738-1.118.344-.342.674-.56 1.118-.737 1.284-.508 4.336-.394 5.76-.394 1.423 0 4.474-.114 5.758.394.445.178.777.393 1.119.737.344.344.559.674.737 1.118.508 1.284.393 4.336.393 5.76 0 1.423.115 4.472-.395 5.756Z"/>
</svg>
