<svg width="30" height="31" viewBox="0 0 30 31" fill="none" xmlns="http://www.w3.org/2000/svg">
<g id="ant-design:instagram-filled">
<path id="Vector" d="M14.9999 11.5947C12.8495 11.5947 11.0946 13.3496 11.0946 15.5C11.0946 17.6504 12.8495 19.4053 14.9999 19.4053C17.1503 19.4053 18.9052 17.6504 18.9052 15.5C18.9052 13.3496 17.1503 11.5947 14.9999 11.5947ZM26.7128 15.5C26.7128 13.8828 26.7274 12.2803 26.6366 10.666C26.5458 8.791 26.1181 7.12694 24.747 5.75585C23.3729 4.38182 21.7118 3.95702 19.8368 3.8662C18.2196 3.77538 16.6171 3.79003 15.0028 3.79003C13.3856 3.79003 11.7831 3.77538 10.1688 3.8662C8.29384 3.95702 6.62978 4.38475 5.25868 5.75585C3.88466 7.12987 3.45986 8.791 3.36904 10.666C3.27822 12.2832 3.29286 13.8857 3.29286 15.5C3.29286 17.1142 3.27822 18.7197 3.36904 20.334C3.45986 22.209 3.88759 23.873 5.25868 25.2441C6.63271 26.6181 8.29384 27.043 10.1688 27.1338C11.786 27.2246 13.3886 27.2099 15.0028 27.2099C16.62 27.2099 18.2226 27.2246 19.8368 27.1338C21.7118 27.043 23.3759 26.6152 24.747 25.2441C26.121 23.8701 26.5458 22.209 26.6366 20.334C26.7304 18.7197 26.7128 17.1172 26.7128 15.5ZM14.9999 21.5088C11.6747 21.5088 8.99111 18.8252 8.99111 15.5C8.99111 12.1748 11.6747 9.4912 14.9999 9.4912C18.3251 9.4912 21.0087 12.1748 21.0087 15.5C21.0087 18.8252 18.3251 21.5088 14.9999 21.5088ZM21.2548 10.6484C20.4784 10.6484 19.8515 10.0215 19.8515 9.2451C19.8515 8.46874 20.4784 7.84178 21.2548 7.84178C22.0311 7.84178 22.6581 8.46874 22.6581 9.2451C22.6583 9.42945 22.6222 9.61204 22.5517 9.7824C22.4813 9.95277 22.3779 10.1076 22.2476 10.2379C22.1172 10.3683 21.9624 10.4716 21.7921 10.5421C21.6217 10.6125 21.4391 10.6487 21.2548 10.6484Z" fill="black"/>
</g>
</svg>
