<svg width="54" height="54" viewBox="0 0 54 54" fill="none" xmlns="http://www.w3.org/2000/svg">
<g filter="url(#filter0_d_1801_3351)">
<rect x="13.0293" y="12.8828" width="28" height="28" rx="14" fill="#21E786"/>
<g clip-path="url(#clip0_1801_3351)">
<path d="M36.8828 24.6235C36.8147 24.4139 36.6335 24.2611 36.4154 24.2294L30.3149 23.3429L27.5867 17.815C27.4897 17.6183 27.2898 17.4934 27.0705 17.4922C26.8516 17.4904 26.65 17.6139 26.551 17.8095L23.7466 23.3424L17.6423 24.2295C17.4242 24.2611 17.2429 24.4139 17.1749 24.6235C17.1067 24.8332 17.1635 25.0633 17.3214 25.2171L21.7357 29.5201L20.6936 35.5958C20.6565 35.8125 20.7452 36.0315 20.9227 36.1612C21.1001 36.2909 21.3358 36.3089 21.531 36.2077L27.0656 33.3366L32.5238 36.2062C32.7191 36.3088 32.9554 36.2917 33.1336 36.1621C33.3119 36.0325 33.4013 35.813 33.364 35.5958L32.3219 29.5199L36.7363 25.2171C36.8941 25.0632 36.9509 24.8331 36.8828 24.6235ZM31.2956 28.9033C31.1591 29.0363 31.0969 29.2279 31.1291 29.4158L32.0243 34.6353L27.3369 32.1709C27.1692 32.0827 26.9689 32.0822 26.8008 32.1694L22.032 34.6432L22.9286 29.4157C22.9608 29.2279 22.8985 29.0362 22.7621 28.9032L18.9699 25.2068L24.2105 24.4452C24.397 24.4181 24.5586 24.3021 24.6438 24.134L27.0605 19.3657L29.4112 24.1285C29.4955 24.2994 29.6585 24.4179 29.8471 24.4453L35.0878 25.2068L31.2956 28.9033Z" fill="black"/>
</g>
</g>
<defs>
<filter id="filter0_d_1801_3351" x="0.676354" y="0.52987" width="52.7059" height="52.7059" filterUnits="userSpaceOnUse" color-interpolation-filters="sRGB">
<feFlood flood-opacity="0" result="BackgroundImageFix"/>
<feColorMatrix in="SourceAlpha" type="matrix" values="0 0 0 0 0 0 0 0 0 0 0 0 0 0 0 0 0 0 127 0" result="hardAlpha"/>
<feOffset/>
<feGaussianBlur stdDeviation="6.17647"/>
<feComposite in2="hardAlpha" operator="out"/>
<feColorMatrix type="matrix" values="0 0 0 0 0 0 0 0 0 0 0 0 0 0 0 0 0 0 0.25 0"/>
<feBlend mode="normal" in2="BackgroundImageFix" result="effect1_dropShadow_1801_3351"/>
<feBlend mode="normal" in="SourceGraphic" in2="effect1_dropShadow_1801_3351" result="shape"/>
</filter>
<clipPath id="clip0_1801_3351">
<rect width="19.7647" height="19.7647" fill="white" transform="translate(17.1465 17)"/>
</clipPath>
</defs>
</svg>
