<svg width="51" height="50" viewBox="0 0 51 50" fill="none" xmlns="http://www.w3.org/2000/svg">
<g id="vaadin:thumbs-down" clip-path="url(#clip0_1418_2769)">
<path id="Vector" d="M49.3584 25.625C49.3584 25.625 50.9209 24.0625 50.6084 20.625C50.6084 15.9375 45.6084 15.625 45.6084 15.625L38.1084 15.625C37.4834 15.625 37.1709 15 37.1709 14.375C38.1084 12.1875 39.6709 7.8125 39.0459 4.6875C38.1084 0.3125 34.3584 0 33.1084 0C32.7959 0 32.4834 0.3125 32.4834 0.625L29.3584 9.375C29.3584 9.375 29.3584 9.6875 29.0459 9.6875L20.9209 18.4375C20.6084 18.75 20.2959 18.75 19.9834 18.75H19.3584L19.3584 40.625H19.9834C22.1709 40.625 29.9834 46.875 36.8584 46.875C43.7334 46.875 45.2959 45.9375 46.5459 43.75C47.7959 41.5625 46.8584 39.6875 46.8584 39.6875C46.8584 39.6875 48.4209 38.75 48.7334 36.5625C49.0459 34.375 48.4209 33.125 48.4209 33.125C48.4209 33.125 49.9834 31.875 49.9834 29.375C50.2959 26.5625 49.3584 25.625 49.3584 25.625ZM0.608398 15.625L16.2334 15.625L16.2334 40.625H0.608398L0.608398 15.625ZM8.4209 26.5625C10.2959 26.5625 11.5459 25.3125 11.5459 23.4375C11.5459 21.5625 10.2959 20.3125 8.4209 20.3125C6.5459 20.3125 5.2959 21.5625 5.2959 23.4375C5.2959 25.3125 6.5459 26.5625 8.4209 26.5625Z" fill="#447C07"/>
</g>
<defs>
<clipPath id="clip0_1418_2769">
<rect width="50" height="50" fill="white" transform="matrix(1 0 0 -1 0.608398 50)"/>
</clipPath>
</defs>
</svg>
