<svg xmlns="http://www.w3.org/2000/svg" width="25" height="25" fill="none" viewBox="0 0 25 25">
  <path fill="#000" d="M21.484 2.734H3.516a.78.78 0 0 0-.782.782v17.968c0 .432.35.782.782.782h17.968a.78.78 0 0 0 .782-.782V3.516a.78.78 0 0 0-.782-.782ZM8.528 19.377H5.63v-9.32h2.898v9.32ZM7.08 8.782a1.68 1.68 0 1 1 0-3.36 1.68 1.68 0 0 1 0 3.36Zm12.297 10.595h-2.895v-4.533c0-1.082-.02-2.471-1.506-2.471-1.507 0-1.739 1.177-1.739 2.393v4.611h-2.893v-9.32h2.779v1.274h.039c.385-.733 1.33-1.507 2.741-1.507 2.935 0 3.474 1.931 3.474 4.441v5.112Z"/>
</svg>
