<svg width="24" height="24" viewBox="0 0 24 24" fill="none" xmlns="http://www.w3.org/2000/svg">
<g id="g453">
<g id="g455">
<g id="Clip path group">
<mask id="mask0_2188_735" style="mask-type:luminance" maskUnits="userSpaceOnUse" x="0" y="0" width="24" height="24">
<g id="clipPath461">
<path id="path459" d="M0 1.90735e-06H24V24H0V1.90735e-06Z" fill="white"/>
</g>
</mask>
<g mask="url(#mask0_2188_735)">
<g id="g457">
<g id="g463">
<path id="path465" d="M0.9375 22.875V3.75C0.9375 2.1967 2.1967 0.937502 3.75 0.937502H10.6875C12.2408 0.937502 13.5 2.1967 13.5 3.75V23.0625" stroke="black" stroke-width="1.5" stroke-miterlimit="10" stroke-linecap="round" stroke-linejoin="round"/>
</g>
<g id="g467">
<path id="path469" d="M17.2031 15.75V23.0625" stroke="black" stroke-width="1.5" stroke-miterlimit="10" stroke-linecap="round" stroke-linejoin="round"/>
</g>
<g id="g471">
<path id="path473" d="M7.45312 0.937501H14.3906C15.9439 0.937501 17.2031 2.1967 17.2031 3.75V8.20312" stroke="black" stroke-width="1.5" stroke-miterlimit="10" stroke-linecap="round" stroke-linejoin="round"/>
</g>
<g id="g475">
<path id="path477" d="M0.9375 23.0625H23.0625" stroke="black" stroke-width="1.5" stroke-miterlimit="10" stroke-linecap="round" stroke-linejoin="round"/>
</g>
<g id="g479">
<path id="path481" d="M9.79688 12.7969V10.875" stroke="black" stroke-width="1.5" stroke-miterlimit="10" stroke-linecap="round" stroke-linejoin="round"/>
</g>
<g id="g483">
<path id="path485" d="M22.5469 12H17.2031" stroke="black" stroke-width="1.5" stroke-miterlimit="10" stroke-linecap="round" stroke-linejoin="round"/>
</g>
<g id="g487">
<path id="path489" d="M20.9062 14.7656L22.6557 12.9944C23.1981 12.4452 23.1981 11.5548 22.6557 11.0056L20.9062 9.23438" stroke="black" stroke-width="1.5" stroke-miterlimit="10" stroke-linecap="round" stroke-linejoin="round"/>
</g>
</g>
</g>
</g>
</g>
</g>
</svg>
