<svg width="24" height="25" viewBox="0 0 24 25" fill="none" xmlns="http://www.w3.org/2000/svg">
<g id="mark_unread_chat_alt">
<mask id="mask0_1857_519" style="mask-type:alpha" maskUnits="userSpaceOnUse" x="0" y="0" width="24" height="25">
<rect id="Bounding box" y="0.5" width="24" height="24" fill="#D9D9D9"/>
</mask>
<g mask="url(#mask0_1857_519)">
<path id="mark_unread_chat_alt_2" d="M19 6.5C18.1667 6.5 17.4583 6.20833 16.875 5.625C16.2917 5.04167 16 4.33333 16 3.5C16 2.66667 16.2917 1.95833 16.875 1.375C17.4583 0.791667 18.1667 0.5 19 0.5C19.8333 0.5 20.5417 0.791667 21.125 1.375C21.7083 1.95833 22 2.66667 22 3.5C22 4.33333 21.7083 5.04167 21.125 5.625C20.5417 6.20833 19.8333 6.5 19 6.5ZM2 22.5V4.5C2 3.95 2.19583 3.47917 2.5875 3.0875C2.97917 2.69583 3.45 2.5 4 2.5H14.1C14.0333 2.83333 14 3.16667 14 3.5C14 3.83333 14.0333 4.16667 14.1 4.5C14.1833 4.88333 14.3 5.24167 14.45 5.575C14.6 5.90833 14.7833 6.21667 15 6.5H6V8.5H19C19.5333 8.5 20.0583 8.41667 20.575 8.25C21.0917 8.08333 21.5667 7.83333 22 7.5V16.5C22 17.05 21.8042 17.5208 21.4125 17.9125C21.0208 18.3042 20.55 18.5 20 18.5H6L2 22.5ZM6 11.5H18V9.5H6V11.5ZM6 14.5H14V12.5H6V14.5Z" fill="#1C1B1F"/>
</g>
</g>
</svg>
