<svg width="24" height="24" viewBox="0 0 24 24" fill="none" xmlns="http://www.w3.org/2000/svg">
<g clip-path="url(#clip0_1801_3199)">
<path d="M12 0C6.95986 0 2.85938 4.10048 2.85938 9.14062C2.85938 12.37 4.54275 15.2136 7.07812 16.84V23.2969C7.07812 23.5562 7.22086 23.7945 7.44947 23.9168C7.67812 24.0392 7.95553 24.0257 8.17125 23.8819L12 21.3294L15.8287 23.8819C16.0444 24.0257 16.3218 24.0392 16.5505 23.9168C16.7791 23.7945 16.9219 23.5562 16.9219 23.2969V16.84C19.4573 15.2136 21.1406 12.37 21.1406 9.14062C21.1406 4.10048 17.0401 0 12 0ZM15.5156 21.9831L12.39 19.8993C12.1538 19.7419 11.8461 19.7419 11.61 19.8993L8.48438 21.9831V17.5777C9.56719 18.0306 10.7548 18.2812 12 18.2812C13.2452 18.2812 14.4328 18.0306 15.5156 17.5777V21.9831ZM12 16.875C7.73527 16.875 4.26562 13.4054 4.26562 9.14062C4.26562 4.87589 7.73527 1.40625 12 1.40625C16.2647 1.40625 19.7344 4.87589 19.7344 9.14062C19.7344 13.4054 16.2648 16.875 12 16.875Z" fill="black"/>
<path d="M17.5916 7.49573C17.5094 7.239 17.2876 7.05188 17.0207 7.014L13.983 6.58303L12.6276 3.90155C12.5079 3.66488 12.2653 3.51562 12 3.51562C11.7348 3.51562 11.4922 3.66488 11.3725 3.90155L10.0171 6.58303L6.9794 7.014C6.7125 7.05188 6.49073 7.239 6.40851 7.49573C6.32629 7.75247 6.39815 8.03363 6.59343 8.21948L8.78137 10.3018L8.26565 13.2377C8.21948 13.5006 8.32612 13.767 8.541 13.9253C8.75582 14.0837 9.04181 14.1067 9.27928 13.9849L12 12.5883L14.7208 13.9849C14.9587 14.107 15.2447 14.0835 15.4591 13.9253C15.6739 13.767 15.7806 13.5006 15.7344 13.2377L15.2187 10.3018L17.4067 8.21953C17.6019 8.03363 17.6738 7.75252 17.5916 7.49573ZM13.9762 9.54295C13.8057 9.70523 13.7277 9.94209 13.7684 10.1739L14.1047 12.088L12.3211 11.1725C12.1195 11.069 11.8805 11.069 11.6789 11.1725L9.8954 12.088L10.2316 10.1739C10.2724 9.94209 10.1944 9.70523 10.0238 9.54295L8.61515 8.20228L10.5779 7.92384C10.8054 7.89155 11.0029 7.75003 11.1066 7.54491L12 5.77734L12.8935 7.54486C12.9972 7.75003 13.1946 7.89155 13.4222 7.9238L15.3849 8.20223L13.9762 9.54295Z" fill="black"/>
</g>
<defs>
<clipPath id="clip0_1801_3199">
<rect width="24" height="24" fill="white"/>
</clipPath>
</defs>
</svg>
