<svg width="20" height="21" viewBox="0 0 20 21" fill="none" xmlns="http://www.w3.org/2000/svg">
<g id="lucide:pencil-line">
<path id="Vector" d="M10 17.1667H17.5M12.5 4.66666L15 7.16666M13.75 3.41666C14.0815 3.08514 14.5312 2.8989 15 2.8989C15.2321 2.8989 15.462 2.94462 15.6765 3.03346C15.891 3.1223 16.0858 3.25251 16.25 3.41666C16.4142 3.58081 16.5444 3.77569 16.6332 3.99017C16.722 4.20464 16.7678 4.43452 16.7678 4.66666C16.7678 4.89881 16.722 5.12868 16.6332 5.34316C16.5444 5.55763 16.4142 5.75251 16.25 5.91666L5.83333 16.3333L2.5 17.1667L3.33333 13.8333L13.75 3.41666Z" stroke="black" stroke-width="1.5" stroke-linecap="round" stroke-linejoin="round"/>
</g>
</svg>
