<svg width="21" height="20" viewBox="0 0 21 20" fill="none" xmlns="http://www.w3.org/2000/svg">
<g id="person_2">
<mask id="mask0_2127_55" style="mask-type:alpha" maskUnits="userSpaceOnUse" x="0" y="0" width="25" height="25">
<rect id="Bounding box" x="0.0229492" y="0.046875" width="24" height="24" fill="#D9D9D9"/>
</mask>
<g mask="url(#mask0_2127_55)">
<path id="person_2_2" d="M8.24829 10.0387C7.74829 10.0387 7.33162 9.85124 6.99829 9.47624C6.66496 9.10124 6.53301 8.66374 6.60246 8.16374L6.87329 6.12207C6.9844 5.3304 7.34551 4.67415 7.95662 4.15332C8.56774 3.63249 9.28301 3.37207 10.1025 3.37207C10.9219 3.37207 11.6372 3.63249 12.2483 4.15332C12.8594 4.67415 13.2205 5.3304 13.3316 6.12207L13.6025 8.16374C13.6719 8.66374 13.54 9.10124 13.2066 9.47624C12.8733 9.85124 12.4566 10.0387 11.9566 10.0387H8.24829ZM8.24829 8.37207H11.9566L11.6858 6.37207C11.6302 5.98318 11.4532 5.66374 11.1545 5.41374C10.8559 5.16374 10.5052 5.03874 10.1025 5.03874C9.69968 5.03874 9.34899 5.16374 9.05037 5.41374C8.75176 5.66374 8.57468 5.98318 8.51912 6.37207L8.24829 8.37207ZM3.43579 16.7054V14.3721C3.43579 13.8998 3.55732 13.4658 3.80037 13.07C4.04343 12.6742 4.36635 12.3721 4.76912 12.1637C5.63024 11.7332 6.50524 11.4103 7.39412 11.195C8.28301 10.9797 9.18579 10.8721 10.1025 10.8721C11.0191 10.8721 11.9219 10.9797 12.8108 11.195C13.6997 11.4103 14.5747 11.7332 15.4358 12.1637C15.8386 12.3721 16.1615 12.6742 16.4045 13.07C16.6476 13.4658 16.7691 13.8998 16.7691 14.3721V16.7054H3.43579ZM5.10246 15.0387H15.1025V14.3721C15.1025 14.2193 15.0643 14.0804 14.9879 13.9554C14.9115 13.8304 14.8108 13.7332 14.6858 13.6637C13.9358 13.2887 13.1788 13.0075 12.415 12.82C11.6511 12.6325 10.8802 12.5387 10.1025 12.5387C9.32468 12.5387 8.55385 12.6325 7.78996 12.82C7.02607 13.0075 6.26912 13.2887 5.51912 13.6637C5.39412 13.7332 5.29343 13.8304 5.21704 13.9554C5.14065 14.0804 5.10246 14.2193 5.10246 14.3721V15.0387Z" fill="black"/>
</g>
</g>
</svg>
