<svg width="25" height="21" viewBox="0 0 25 21" fill="none" xmlns="http://www.w3.org/2000/svg">
<g id="lucide:phone-call">
<path id="Vector" d="M14.6357 2.16666C16.7589 2.34564 18.7422 3.09899 20.2575 4.30214C21.7728 5.5053 22.7294 7.08617 22.9691 8.78333M14.6357 5.49999C15.6602 5.66161 16.6003 6.06585 17.334 6.66025C18.0678 7.25465 18.5612 8.01177 18.7503 8.83333M22.917 14.6V17.1C22.9182 17.3321 22.8587 17.5618 22.7425 17.7745C22.6263 17.9871 22.4558 18.178 22.2421 18.3349C22.0283 18.4918 21.7759 18.6112 21.5011 18.6856C21.2263 18.7599 20.9351 18.7876 20.6461 18.7667C17.4408 18.488 14.3618 17.6118 11.6566 16.2083C9.13972 14.9289 7.00588 13.2218 5.40657 11.2083C3.64613 9.03433 2.55057 6.55916 2.20865 3.98333C2.18262 3.75288 2.21685 3.52063 2.30917 3.30135C2.40149 3.08207 2.54987 2.88057 2.74486 2.70968C2.93986 2.53879 3.1772 2.40225 3.44177 2.30876C3.70633 2.21527 3.99234 2.16688 4.28157 2.16666H7.40657C7.91209 2.16268 8.40218 2.30589 8.78549 2.5696C9.16879 2.83332 9.41915 3.19953 9.4899 3.59999C9.6218 4.40005 9.86641 5.1856 10.2191 5.94166C10.3592 6.23993 10.3895 6.56409 10.3065 6.87573C10.2234 7.18737 10.0304 7.47342 9.75032 7.69999L8.4274 8.75833C9.91027 10.8446 12.0695 12.572 14.6774 13.7583L16.0003 12.7C16.2835 12.4759 16.6411 12.3215 17.0306 12.2551C17.4202 12.1886 17.8254 12.2129 18.1982 12.325C19.1433 12.6071 20.1252 12.8028 21.1253 12.9083C21.6313 12.9654 22.0934 13.1693 22.4238 13.4812C22.7541 13.7931 22.9297 14.1913 22.917 14.6Z" stroke="black" stroke-width="1.5" stroke-linecap="round" stroke-linejoin="round"/>
</g>
</svg>
