<svg width="49" height="50" viewBox="0 0 49 50" fill="none" xmlns="http://www.w3.org/2000/svg">
<g id="slow_motion_video">
<mask id="mask0_2470_2090" style="mask-type:alpha" maskUnits="userSpaceOnUse" x="0" y="0" width="51" height="51">
<rect id="Bounding box" x="0.0893555" y="0.0981598" width="50" height="50" fill="#D9D9D9"/>
</mask>
<g mask="url(#mask0_2470_2090)">
<path id="slow_motion_video_2" d="M8.9436 38.2232C7.62416 36.6954 6.56513 34.994 5.76652 33.119C4.96791 31.244 4.46444 29.2648 4.2561 27.1815H8.52694C8.73527 28.7093 9.11721 30.1589 9.67277 31.5305C10.2283 32.902 10.9575 34.1607 11.8603 35.3065L8.9436 38.2232ZM4.2561 23.0148C4.53388 20.9315 5.05471 18.9523 5.8186 17.0773C6.58249 15.2023 7.62416 13.5009 8.9436 11.9732L11.8603 14.8898C10.9575 16.0357 10.2283 17.2944 9.67277 18.6659C9.11721 20.0374 8.73527 21.4871 8.52694 23.0148H4.2561ZM22.9019 45.8273C20.8186 45.619 18.8481 45.1155 16.9905 44.3169C15.1328 43.5183 13.4228 42.494 11.8603 41.244L14.7769 38.2232C15.9922 39.1259 17.2683 39.8725 18.6051 40.4628C19.9419 41.053 21.3742 41.4523 22.9019 41.6607V45.8273ZM14.8811 11.9732L11.8603 8.95234C13.4228 7.70234 15.1328 6.67803 16.9905 5.87942C18.8481 5.08081 20.8533 4.57734 23.0061 4.369V8.53567C21.4436 8.744 19.9853 9.14331 18.6311 9.73359C17.2769 10.3239 16.0269 11.0704 14.8811 11.9732ZM19.8811 34.4732V15.7232L34.4644 25.0982L19.8811 34.4732ZM27.1728 45.8273V41.6607C31.3742 41.0704 34.8551 39.2128 37.6155 36.0878C40.3759 32.9628 41.7561 29.2996 41.7561 25.0982C41.7561 20.8968 40.3759 17.2336 37.6155 14.1086C34.8551 10.9836 31.3742 9.12595 27.1728 8.53567V4.369C32.52 4.95928 36.9818 7.21623 40.5582 11.1398C44.1346 15.0634 45.9228 19.7162 45.9228 25.0982C45.9228 30.4801 44.1346 35.1329 40.5582 39.0565C36.9818 42.9801 32.52 45.2371 27.1728 45.8273Z" fill="#1C1B1F"/>
</g>
</g>
</svg>
