<svg width="20" height="20" viewBox="0 0 20 20" fill="none" xmlns="http://www.w3.org/2000/svg">
<g id="Group">
<g id="Group_2">
<path id="Vector" d="M19.8535 7.74118C19.7854 7.53157 19.6042 7.37878 19.3861 7.34709L13.2856 6.46061L10.5574 0.932642C10.4604 0.735999 10.2605 0.611041 10.0412 0.609883C9.82233 0.608069 9.62075 0.731559 9.52165 0.92716L6.71735 6.46007L0.61296 7.34713C0.394854 7.37882 0.213652 7.53161 0.145556 7.74122C0.0774223 7.95084 0.134246 8.18095 0.292054 8.33478L4.70641 12.6377L3.66432 18.7135C3.62719 18.9302 3.7159 19.1492 3.89339 19.2789C4.07085 19.4086 4.30652 19.4266 4.50166 19.3254L10.0363 16.4543L15.4945 19.3239C15.6898 19.4265 15.9261 19.4093 16.1043 19.2798C16.2826 19.1502 16.372 18.9307 16.3347 18.7134L15.2926 12.6376L19.707 8.33474C19.8648 8.18091 19.9217 7.9508 19.8535 7.74118ZM14.2663 12.0209C14.1298 12.154 14.0676 12.3456 14.0998 12.5335L14.995 17.753L10.3076 15.2886C10.1399 15.2004 9.93964 15.1999 9.77149 15.2871L5.00272 17.7609L5.89931 12.5334C5.93151 12.3456 5.86924 12.1539 5.73278 12.0209L1.94059 8.32444L7.18124 7.56292C7.36769 7.53582 7.52932 7.41974 7.61448 7.25166L10.0312 2.4834L12.3819 7.24622C12.4662 7.41711 12.6292 7.53558 12.8178 7.56299L18.0585 8.32451L14.2663 12.0209Z" fill="black"/>
</g>
</g>
</svg>
