<svg width="24" height="24" viewBox="0 0 24 24" xmlns="http://www.w3.org/2000/svg">
  <g id="Group">
    <g id="Group_2">
      <path id="Vector" d="M23.9655 9.25687C23.8829 9.00234 23.6628 8.81681 23.398 8.77833L15.9902 7.70189L12.6774 0.989357C12.5596 0.750576 12.3169 0.598842 12.0506 0.597436C11.7848 0.595233 11.54 0.745186 11.4197 0.982701L8.01448 7.70123L0.602009 8.77837C0.337166 8.81686 0.117135 9.00239 0.0344479 9.25692C-0.0482863 9.51145 0.0207136 9.79087 0.212338 9.97767L5.57263 15.2027L4.30724 22.5804C4.26214 22.8435 4.36986 23.1095 4.58539 23.2669C4.80088 23.4244 5.08705 23.4463 5.324 23.3234L12.0446 19.8371L18.6725 23.3215C18.9096 23.4461 19.1965 23.4253 19.413 23.268C19.6295 23.1107 19.7379 22.8441 19.6927 22.5803L18.4273 15.2025L23.7876 9.97762C23.9793 9.79082 24.0483 9.5114 23.9655 9.25687ZM17.1811 14.4537C17.0154 14.6152 16.9397 14.848 16.9789 15.0761L18.0659 21.414L12.374 18.4216C12.1704 18.3145 11.9273 18.3139 11.7231 18.4198L5.93244 21.4236L7.02115 15.076C7.06025 14.8479 6.98464 14.6152 6.81893 14.4537L2.21413 9.96511L8.57778 9.0404C8.80418 9.0075 9.00045 8.86654 9.10385 8.66245L12.0385 2.87242L14.8928 8.65584C14.9953 8.86336 15.1932 9.00722 15.4222 9.0405L21.7859 9.9652L17.1811 14.4537Z" fill="#21E786"/>
    </g>
  </g>
</svg>
