<svg width="30" height="31" viewBox="0 0 30 31" fill="none" xmlns="http://www.w3.org/2000/svg">
<g id="ant-design:twitter-square-filled">
<path id="Vector" d="M25.7812 3.78125H4.21875C3.7002 3.78125 3.28125 4.2002 3.28125 4.71875V26.2812C3.28125 26.7998 3.7002 27.2188 4.21875 27.2188H25.7812C26.2998 27.2188 26.7188 26.7998 26.7188 26.2812V4.71875C26.7188 4.2002 26.2998 3.78125 25.7812 3.78125ZM21.3076 12.2686C21.3164 12.4062 21.3164 12.5498 21.3164 12.6904C21.3164 16.9912 18.041 21.9453 12.0557 21.9453C10.21 21.9453 8.49902 21.4092 7.05762 20.4863C7.32129 20.5156 7.57324 20.5273 7.84277 20.5273C9.36621 20.5273 10.7666 20.0117 11.8828 19.1387C10.4531 19.1094 9.25195 18.1719 8.8418 16.8828C9.34277 16.9561 9.79395 16.9561 10.3096 16.8242C9.57342 16.6747 8.91174 16.2749 8.43696 15.6927C7.96218 15.1106 7.70357 14.3821 7.70508 13.6309V13.5898C8.13574 13.833 8.64258 13.9824 9.17285 14.0029C8.72708 13.7058 8.3615 13.3034 8.10853 12.8311C7.85556 12.3589 7.72302 11.8316 7.72266 11.2959C7.72266 10.6895 7.88086 10.1357 8.16504 9.65527C8.98214 10.6611 10.0017 11.4838 11.1576 12.0698C12.3135 12.6558 13.5797 12.9921 14.874 13.0566C14.4141 10.8447 16.0664 9.05469 18.0527 9.05469C18.9902 9.05469 19.834 9.44727 20.4287 10.0801C21.1641 9.94238 21.8672 9.66699 22.4941 9.29785C22.251 10.0508 21.7412 10.6865 21.0645 11.0879C21.7207 11.0176 22.3535 10.8359 22.9395 10.5811C22.4971 11.2314 21.9434 11.8086 21.3076 12.2686Z" fill="black"/>
</g>
</svg>
