<svg width="24" height="24" viewBox="0 0 24 24" fill="none" xmlns="http://www.w3.org/2000/svg">
<g id="Group">
<path id="Vector" d="M23.2954 17.3221H16.4678V13.5068C16.4678 13.1185 16.153 12.8037 15.7647 12.8037H8.23388C7.84559 12.8037 7.53079 13.1185 7.53079 13.5068V15.0629H0.703081C0.314793 15.0629 0 15.3777 0 15.766V23.2968C0 23.6851 0.314793 23.9999 0.703081 23.9999H23.2954C23.6837 23.9999 23.9985 23.6851 23.9985 23.2968V18.0252C23.9985 17.6369 23.6837 17.3221 23.2954 17.3221ZM7.53079 22.5937H1.40616V16.4691H7.53079V22.5937ZM15.0616 22.5937H8.93696V14.2098H15.0616V22.5937ZM22.5923 22.5937H16.4678V18.7283H22.5924V22.5937H22.5923Z" fill="black"/>
<path id="Vector_2" d="M5.66015 4.34522L8.31812 5.67423C8.53036 7.06924 9.73675 8.18484 11.2461 8.18484H11.2961V9.79101H9.73999C8.80714 9.82817 8.80784 11.1604 9.73999 11.1972H14.2585C15.1913 11.16 15.1906 9.8278 14.2585 9.79101H12.7023V8.18484H12.7523C14.258 8.18484 15.4675 7.07317 15.6803 5.67423L18.3383 4.34522C18.5765 4.22617 18.727 3.98271 18.727 3.71639V0.704058C18.727 0.315769 18.4122 0.000976562 18.0239 0.000976562H5.97457C5.58628 0.000976562 5.27148 0.315769 5.27148 0.704058V3.71639C5.27148 3.98271 5.42194 4.22617 5.66015 4.34522ZM15.7146 1.40714H17.3207V3.28183L15.7146 4.08494V1.40714ZM9.68997 1.40714H14.3084V5.22253C14.3084 6.0831 13.6121 6.77863 12.7523 6.77863H11.2461C10.3856 6.77863 9.68993 6.08253 9.68993 5.22253V1.40714H9.68997ZM6.67765 1.40714H8.28381V4.08494L6.67765 3.28183V1.40714Z" fill="black"/>
<path id="Vector_3" d="M0.703279 5.92569H2.20947C3.14231 5.88852 3.14161 4.55633 2.20947 4.51953H0.703279C-0.229569 4.55665 -0.228866 5.8889 0.703279 5.92569Z" fill="black"/>
<path id="Vector_4" d="M21.0859 5.22261C21.0859 5.6109 21.4007 5.92569 21.789 5.92569H23.2952C24.228 5.88852 24.2273 4.55633 23.2952 4.51953H21.789C21.4007 4.51953 21.0859 4.83432 21.0859 5.22261Z" fill="black"/>
<path id="Vector_5" d="M1.30609 1.3136L2.61045 2.06665C2.98237 2.28146 3.3994 2.10625 3.57085 1.80932C3.765 1.47301 3.64979 1.04301 3.31353 0.848911L2.00917 0.0958645C1.18277 -0.338546 0.517232 0.815773 1.30609 1.3136Z" fill="black"/>
<path id="Vector_6" d="M21.3868 2.06669L22.6911 1.31364C23.4804 0.815156 22.8136 -0.338507 21.988 0.0959037L20.6837 0.84895C20.3474 1.04309 20.2322 1.47305 20.4263 1.80936C20.5897 2.09237 21.0001 2.29003 21.3868 2.06669Z" fill="black"/>
<path id="Vector_7" d="M2.61107 8.37954L1.30672 9.13259C0.970456 9.32673 0.855244 9.75669 1.04939 10.093C1.21278 10.3761 1.6231 10.5737 2.0098 10.3503L3.31415 9.59728C3.65041 9.40313 3.76562 8.97317 3.57148 8.63687C3.37738 8.30056 2.94738 8.18525 2.61107 8.37954Z" fill="black"/>
<path id="Vector_8" d="M20.6837 9.59727L21.988 10.3503C22.36 10.5651 22.777 10.3899 22.9484 10.093C23.1426 9.75668 23.0274 9.32667 22.6911 9.13258L21.3868 8.37953C21.0504 8.18524 20.6205 8.3006 20.4263 8.63686C20.2322 8.97316 20.3474 9.40317 20.6837 9.59727Z" fill="black"/>
</g>
</svg>
